<svg xmlns="http://www.w3.org/2000/svg" version="1.1" xmlns:xlink="http://www.w3.org/1999/xlink" xmlns:svgjs="http://svgjs.dev/svgjs" width="1000" height="1000" viewBox="0 0 1000 1000"><rect width="1000" height="1000" fill="#ffffff"></rect><g transform="matrix(0.7,0,0,0.7,149.57575757575756,282.1265587044535)"><svg viewBox="0 0 396 247" data-background-color="#ffffff" preserveAspectRatio="xMidYMid meet" height="623" width="1000" xmlns="http://www.w3.org/2000/svg" xmlns:xlink="http://www.w3.org/1999/xlink"><g id="tight-bounds" transform="matrix(1,0,0,1,0.2400000000000091,-0.09999999999999432)"><svg viewBox="0 0 395.52 247.2" height="247.2" width="395.52"><g><svg></svg></g><g><svg viewBox="0 0 395.52 247.2" height="247.2" width="395.52"><g mask="url(#29e40011-b330-4bea-b220-e88f21ed8c64)"><g><path xmlns="http://www.w3.org/2000/svg" d="M128.355 115.295l28.987-30.941-11.725-42.014-47.877-8.468-33.546 5.211 5.537 72.304zM202.939 178.479l20.518 21.496-40.386 36.151-25.404-4.234-17.261-76.537-30.615-22.473-42.34 6.188 0.977 80.772 20.518 6.839 2.606 12.377-70.024-0.977-0.651-8.794 19.216-7.491-3.909-172.291-11.725-12.702-23.449-2.605 0.977-17.588 26.706-0.651 13.68 5.537 8.142-7.166 88.588 1.303 41.037 37.78-5.862 54.391-28.336 21.496 24.102 23.124 2.279 58.624 7.166 2.606zM316.019 219.842l60.578-2.606 10.422 24.753-78.491 5.211-50.482-32.895-5.212-146.561 38.106-55.042 63.185-12.702 40.385 27.358-40.385 53.414-9.771-7.491 19.867-37.781-17.587-15.633-42.992 10.097-17.587 45.596v126.369z" fill="#35185a" fill-rule="nonzero" stroke="none" stroke-width="1" stroke-linecap="butt" stroke-linejoin="miter" stroke-miterlimit="10" stroke-dasharray="" stroke-dashoffset="0" font-family="none" font-weight="none" font-size="none" text-anchor="none" style="mix-blend-mode: normal" data-fill-palette-color="tertiary"></path></g></g><g transform="matrix(1,0,0,1,0,91.81948690575197)"><svg viewBox="0 0 395.52 63.56102618849603" height="63.56102618849603" width="395.52"><g><svg viewBox="0 0 395.52 63.56102618849603" height="63.56102618849603" width="395.52"><g><svg viewBox="0 0 395.52 63.56102618849603" height="63.56102618849603" width="395.52"><g><svg viewBox="0 0 395.52 63.56102618849603" height="63.56102618849603" width="395.52"><g id="textblocktransform"><svg viewBox="0 0 395.52 63.56102618849603" height="63.56102618849603" width="395.52" id="textblock"><g><svg viewBox="0 0 395.52 37.91704485488126" height="37.91704485488126" width="395.52"><g transform="matrix(1,0,0,1,0,0)"><svg width="395.52" viewBox="-1.5 -39.849998474121094 455.7699890136719 44.599998474121094" height="37.91704485488126" data-palette-color="#35185a"><path d="M21.05-19.15L25.5-23.9 23.7-30.35 16.35-31.65 11.2-30.85 12.05-19.75 21.05-19.15ZM32.5-9.45L35.65-6.15 29.45-0.6 25.55-1.25 22.9-13 18.2-16.45 11.7-15.5 11.85-3.1 15-2.05 15.4-0.15 4.65-0.3 4.55-1.65 7.5-2.8 6.9-29.25 5.1-31.2 1.5-31.6 1.65-34.3 5.75-34.4 7.85-33.55 9.1-34.65 22.7-34.45 29-28.65 28.1-20.3 23.75-17 27.45-13.45 27.8-4.45 28.9-4.05 32.5-9.45ZM60.8-6.45L64.9-2.55 67.35-0.05 61.8 0.1 58.7-3.5 58.2-2.75 49.1 1.75 39.95-2.05 36.65-11.2 42.75-18.55 44.45-19.7 40.95-27.15 45-35.7 54.6-36.05 59.5-28.8 56.85-24.35 49.75-18.65 49.7-18.65 56.75-10.4 58.4-8.75 62.15-12.95 62.3-20.05 67.6-19.85 65.1-12.5 60.8-6.45ZM45.9-23.05L47.1-21.6 55.95-27.8 53.4-32.3 47.6-33.35 45.15-28.55 45.9-23.05ZM54.7-4.65L56.25-6.4 56.1-6.6 46.75-16.3 40.8-11.45 42-5.7 47.4-1.95 54.7-4.65ZM98-1.95L98.34 0 88.64 0 87.5-1.2 91.39-2.3 89.84-9.35 88.64-11.65 76.25-10.1 75.44-7.4 74.69-2.3 77.8-1.2 77.8 0.4 67.75-0.35 67.75-1.95 70.8-2.7 80.09-35.3 85.55-34.5 95.3-2.7 98-1.95ZM77.39-13.15L87.5-15.1 83.25-30.65 82.5-30.25 77.39-14 77.39-13.15ZM126.34-3.1L135.64-3.5 137.24 0.3 125.19 1.1 117.44-3.95 116.64-26.45 122.49-34.9 132.19-36.85 138.39-32.65 132.19-24.45 130.69-25.6 133.74-31.4 131.04-33.8 124.44-32.25 121.74-25.25 121.74-5.85 126.34-3.1ZM157.19-31L147.89-30.7 145.14-20.4 147.64-8.5 153.99-3.05 158.19-2.7 164.79-14.25 162.29-26.15 157.19-31ZM149.89-35.7L159.84-34.8 166.54-27.5 168.34-13.25 160.79 0.35 151.89 0.65 143.79-7.45 141.89-20.05 144.54-32 149.89-35.7ZM200.98-2.9L204.63-1.75 204.88 0.05 194.38-0.15 194.23-1.4 196.73-2.4 179.88-27.55 180.13-2.45 182.68-1.6 182.88 0.25 172.43 0.05 172.33-1.2 176.43-2.8 176.08-32.5 172.83-33.4 172.88-34.85 183.73-34.95 183.93-33.5 181.08-32.65 197.93-6.9 198.43-32.7 194.88-33.6 194.93-35.05 205.73-35.1 205.98-33.75 202.63-32.7 200.98-2.9ZM234.28-10.65L234.83-22.8 228.23-30.2 222.68-31.55 218.98-30.55 218.68-4.65 228.23-3.7 234.28-10.65ZM228.78-34.3L238.78-23.65 237.18-7.6 229.18 0.4 216.48-0.5 208.98-0.35 209.13-1.9 214.53-3.15 214.73-31.85 211.23-33.2 211.43-35 216.38-35.25 228.78-34.3ZM258.08-31L248.78-30.7 246.03-20.4 248.53-8.5 254.88-3.05 259.08-2.7 265.68-14.25 263.18-26.15 258.08-31ZM250.78-35.7L260.73-34.8 267.43-27.5 269.23-13.25 261.68 0.35 252.78 0.65 244.68-7.45 242.78-20.05 245.43-32 250.78-35.7ZM307.38-2.35L310.93-1.25 310.68 0.2 300.08 0.15 300.03-1.35 304.18-2.45 304.78-30.3 304.18-30.4 293.58-0.85 290.73-0.85 280.83-29.65 279.63-29.55 281.13-2.6 284.28-1.6 284.58 0.25 274.23 0.05 274.13-1.25 277.08-2.35 276.68-32.95 273.38-34.1 273.23-35.25 281.48-34.85 282.88-32.6 291.98-5.4 292.43-5.55 301.48-33.4 302.73-35.1 310.68-35.1 310.68-33.5 308.38-32.95 307.38-2.35ZM321.53-2.1L324.48-1 324.57 0.5 315.03-0.25 314.98-1.7 318.43-2.8 317.57-32.75 313.93-34 314.03-35.35 324.73-35.45 325.03-33.65 321.68-32.65 321.53-2.1ZM356.67-2.9L360.32-1.75 360.57 0.05 350.07-0.15 349.92-1.4 352.42-2.4 335.57-27.55 335.82-2.45 338.37-1.6 338.57 0.25 328.12 0.05 328.02-1.2 332.12-2.8 331.77-32.5 328.52-33.4 328.57-34.85 339.42-34.95 339.62-33.5 336.77-32.65 353.62-6.9 354.12-32.7 350.57-33.6 350.62-35.05 361.42-35.1 361.67-33.75 358.32-32.7 356.67-2.9ZM372.27-2.1L375.22-1 375.32 0.5 365.77-0.25 365.72-1.7 369.17-2.8 368.32-32.75 364.67-34 364.77-35.35 375.47-35.45 375.77-33.65 372.42-32.65 372.27-2.1ZM410.57-35.45L410.37-33.65 407.62-32.7 406.67-5.95 401.62 0 388.82 0.5 382.97-5.8 381.82-30.7 381.57-32.8 378.77-33.55 378.82-35 389.37-35.1 389.52-33.65 386.22-32.65 386.37-8.6 389.52-3.55 399.87-3.9 402.92-8.25 402.52-33 400.17-33.75 400.22-35.1 410.57-35.45ZM447.72-2.35L451.27-1.25 451.02 0.2 440.42 0.15 440.37-1.35 444.52-2.45 445.12-30.3 444.52-30.4 433.92-0.85 431.07-0.85 421.17-29.65 419.97-29.55 421.47-2.6 424.62-1.6 424.92 0.25 414.57 0.05 414.47-1.25 417.42-2.35 417.02-32.95 413.72-34.1 413.57-35.25 421.82-34.85 423.22-32.6 432.32-5.4 432.77-5.55 441.82-33.4 443.07-35.1 451.02-35.1 451.02-33.5 448.72-32.95 447.72-2.35Z" opacity="1" transform="matrix(1,0,0,1,0,0)" fill="#35185a" class="undefined-text-0" data-fill-palette-color="primary" id="text-0"></path></svg></g></svg></g><g transform="matrix(1,0,0,1,2.5,42.81553257372031)"><svg viewBox="0 0 390.52 20.745493614775718" height="20.745493614775718" width="390.52"><g transform="matrix(1,0,0,1,0,0)"><svg width="390.52" viewBox="-1.1399999856948853 -38.54999923706055 777.6400146484375 42.05999755859375" height="20.745493614775718" data-palette-color="#35185a"><path d="M28.13 0L1.86 0 1.86-2.12 5.83-2.44 5.83-33.08 1.86-33.4 1.86-35.55 27.39-35.55 27.39-27.76 24.9-27.76 24.66-33.13 8.76-33.13 8.76-19.68 23.1-19.68 23.1-17.24 8.76-17.24 8.76-2.37 25.42-2.37 25.66-7.79 28.13-7.79 28.13 0ZM79.33 0L70.2 0 70.2-2.12 73.2-2.39 81.57-13.45 73.54-24.02 70.68-24.27 70.68-26.42 79.62-26.42 79.62-24.27 76.79-24.15 83.33-15.43 89.78-24.15 86.85-24.27 86.85-26.42 95.71-26.42 95.71-24.27 92.83-24.02 85.04-13.5 93.58-2.39 96.49-2.12 96.49 0 87.16 0 87.16-2.12 90.26-2.25 83.28-11.47 76.37-2.25 79.33-2.12 79.33 0ZM145.32 0.51L145.32 0.51Q141.56 0.51 139.44-1.49 137.31-3.49 137.31-6.91L137.31-6.91Q137.31-9.35 138.73-11.19 140.15-13.04 142.75-14.06 145.35-15.09 148.91-15.09L148.91-15.09 154.38-15.09 154.38-18.12Q154.38-20.97 152.68-22.72 150.99-24.46 147.57-24.46L147.57-24.46Q145.64-24.46 144.11-23.84 142.59-23.22 141.46-22.27L141.46-22.27 141.22-18.24 138.8-18.24 138.8-23.75Q140.51-25.22 142.69-26.06 144.86-26.9 147.62-26.9L147.62-26.9Q152.28-26.9 154.79-24.56 157.31-22.22 157.31-18.07L157.31-18.07 157.31-5.32Q157.31-4.54 157.36-3.77 157.41-3 157.53-2.25L157.53-2.25 160.68-2.12 160.68 0 154.92 0Q154.62-1.44 154.51-2.32 154.4-3.2 154.38-4.3L154.38-4.3Q152.94-2.17 150.57-0.83 148.2 0.51 145.32 0.51ZM145.66-2.05L145.66-2.05Q148.37-2.05 150.8-3.48 153.23-4.91 154.38-7.28L154.38-7.28 154.38-12.84 148.89-12.84Q144.83-12.84 142.54-11.1 140.24-9.35 140.24-6.81L140.24-6.81Q140.24-4.69 141.71-3.37 143.17-2.05 145.66-2.05ZM213.15 0.51L213.15 0.51Q209.85 0.51 207.33-1.15 204.8-2.81 203.37-5.79 201.94-8.76 201.94-12.7L201.94-12.7 201.94-13.72Q201.94-17.58 203.32-20.56 204.7-23.54 207.22-25.22 209.73-26.9 213.12-26.9L213.12-26.9Q216.2-26.9 218.59-25.74 220.99-24.58 222.6-22.75L222.6-22.75 222.65-16.77 220.2-16.77 219.81-21.7Q218.59-23 216.96-23.72 215.32-24.44 213.2-24.44L213.2-24.44Q210.71-24.44 208.83-23.05 206.95-21.66 205.91-19.23 204.87-16.8 204.87-13.72L204.87-13.72 204.87-12.7Q204.87-9.47 205.9-7.04 206.92-4.61 208.78-3.27 210.63-1.93 213.17-1.93L213.17-1.93Q216.13-1.93 218.11-3.48 220.08-5.03 220.5-8.06L220.5-8.06 223.11-8.06 223.16-7.91Q222.94-5.42 221.68-3.52 220.42-1.61 218.26-0.55 216.1 0.51 213.15 0.51ZM274.7 0.46L274.7 0.46Q271.92 0.46 270.38-1.26 268.84-2.98 268.84-6.81L268.84-6.81 268.84-24.05 264.28-24.05 264.28-26.42 268.84-26.42 268.84-33.2 271.77-33.2 271.77-26.42 277.92-26.42 277.92-24.05 271.77-24.05 271.77-6.81Q271.77-4.17 272.71-3.02 273.65-1.86 275.21-1.86L275.21-1.86Q276.04-1.86 276.85-1.97 277.66-2.08 278.51-2.2L278.51-2.2 278.95-0.1Q278.07 0.17 276.95 0.32 275.83 0.46 274.7 0.46ZM380.33 0L369.44 0 369.44-2.12 373.42-2.44 373.42-23.95 369.44-24.27 369.44-26.42 376.01-26.42 376.25-21.68Q377.52-24.17 379.67-25.54 381.82-26.9 384.79-26.9L384.79-26.9Q389.09-26.9 391.34-24.28 393.58-21.66 393.58-16.06L393.58-16.06 393.58-2.44 397.56-2.12 397.56 0 386.67 0 386.67-2.12 390.65-2.44 390.65-16.04Q390.65-20.63 388.97-22.51 387.28-24.39 384.16-24.39L384.16-24.39Q380.89-24.39 378.98-22.56 377.08-20.73 376.35-17.77L376.35-17.77 376.35-2.44 380.33-2.12 380.33 0ZM450.64 0.51L450.64 0.51Q447.25 0.51 444.66-1.14 442.07-2.78 440.61-5.7 439.15-8.62 439.15-12.43L439.15-12.43 439.15-13.77Q439.15-17.55 440.61-20.52 442.07-23.49 444.58-25.2 447.08-26.9 450.16-26.9L450.16-26.9Q453.4-26.9 455.71-25.51 458.02-24.12 459.25-21.59 460.48-19.07 460.48-15.65L460.48-15.65 460.48-13.16 442.17-13.16 442.12-12.08Q442.15-9.16 443.21-6.86 444.27-4.57 446.19-3.25 448.11-1.93 450.64-1.93L450.64-1.93Q453.13-1.93 455.03-2.72 456.92-3.52 458.36-4.88L458.36-4.88 459.6-2.88Q458.07-1.42 455.88-0.45 453.7 0.51 450.64 0.51ZM442.32-15.75L442.37-15.6 457.55-15.6 457.55-16.33Q457.55-18.65 456.66-20.5 455.77-22.34 454.12-23.39 452.48-24.44 450.16-24.44L450.16-24.44Q448.06-24.44 446.37-23.3 444.69-22.17 443.63-20.2 442.56-18.24 442.32-15.75L442.32-15.75ZM514.13 0.51L514.13 0.51Q510.83 0.51 508.3-1.15 505.78-2.81 504.35-5.79 502.92-8.76 502.92-12.7L502.92-12.7 502.92-13.72Q502.92-17.58 504.3-20.56 505.68-23.54 508.19-25.22 510.71-26.9 514.1-26.9L514.1-26.9Q517.18-26.9 519.57-25.74 521.96-24.58 523.57-22.75L523.57-22.75 523.62-16.77 521.18-16.77 520.79-21.7Q519.57-23 517.93-23.72 516.3-24.44 514.17-24.44L514.17-24.44Q511.68-24.44 509.8-23.05 507.92-21.66 506.89-19.23 505.85-16.8 505.85-13.72L505.85-13.72 505.85-12.7Q505.85-9.47 506.87-7.04 507.9-4.61 509.76-3.27 511.61-1.93 514.15-1.93L514.15-1.93Q517.1-1.93 519.08-3.48 521.06-5.03 521.47-8.06L521.47-8.06 524.09-8.06 524.14-7.91Q523.92-5.42 522.66-3.52 521.4-1.61 519.24-0.55 517.08 0.51 514.13 0.51ZM578.22 0.51L578.22 0.51Q574.82 0.51 572.24-1.14 569.65-2.78 568.18-5.7 566.72-8.62 566.72-12.43L566.72-12.43 566.72-13.77Q566.72-17.55 568.18-20.52 569.65-23.49 572.15-25.2 574.65-26.9 577.73-26.9L577.73-26.9Q580.98-26.9 583.28-25.51 585.59-24.12 586.82-21.59 588.06-19.07 588.06-15.65L588.06-15.65 588.06-13.16 569.75-13.16 569.7-12.08Q569.72-9.16 570.78-6.86 571.85-4.57 573.76-3.25 575.68-1.93 578.22-1.93L578.22-1.93Q580.71-1.93 582.6-2.72 584.49-3.52 585.93-4.88L585.93-4.88 587.18-2.88Q585.64-1.42 583.45-0.45 581.27 0.51 578.22 0.51ZM569.89-15.75L569.94-15.6 585.13-15.6 585.13-16.33Q585.13-18.65 584.24-20.5 583.34-22.34 581.7-23.39 580.05-24.44 577.73-24.44L577.73-24.44Q575.63-24.44 573.94-23.3 572.26-22.17 571.2-20.2 570.14-18.24 569.89-15.75L569.89-15.75ZM640.04 0.51L640.04 0.51Q637.26 0.51 634.88-0.23 632.49-0.98 630.4-2.39L630.4-2.39 630.37-7.81 632.76-7.81 633.18-3.93Q634.59-2.83 636.33-2.34 638.06-1.86 640.04-1.86L640.04-1.86Q643.36-1.86 645.09-3.3 646.83-4.74 646.83-6.71L646.83-6.71Q646.83-8.57 645.28-10 643.73-11.43 639.77-12.3L639.77-12.3Q635.03-13.33 632.92-15.04 630.81-16.75 630.81-19.8L630.81-19.8Q630.81-21.8 631.93-23.41 633.06-25.02 635.12-25.96 637.18-26.9 639.97-26.9L639.97-26.9Q642.87-26.9 645.02-26.06 647.17-25.22 648.71-23.8L648.71-23.8 648.83-18.38 646.44-18.38 646.09-22.29Q644.99-23.34 643.53-23.91 642.06-24.49 639.97-24.49L639.97-24.49Q636.99-24.49 635.38-23.11 633.76-21.73 633.76-19.9L633.76-19.9Q633.76-18.7 634.26-17.81 634.77-16.92 636.19-16.21 637.62-15.5 640.36-14.87L640.36-14.87Q645.31-13.75 647.53-11.83 649.76-9.91 649.76-6.86L649.76-6.86Q649.76-3.64 647.25-1.56 644.75 0.51 640.04 0.51ZM700.1 0.51L700.1 0.51Q696.34 0.51 694.22-1.49 692.09-3.49 692.09-6.91L692.09-6.91Q692.09-9.35 693.51-11.19 694.93-13.04 697.53-14.06 700.13-15.09 703.69-15.09L703.69-15.09 709.16-15.09 709.16-18.12Q709.16-20.97 707.46-22.72 705.77-24.46 702.35-24.46L702.35-24.46Q700.42-24.46 698.89-23.84 697.37-23.22 696.24-22.27L696.24-22.27 696-18.24 693.58-18.24 693.58-23.75Q695.29-25.22 697.47-26.06 699.64-26.9 702.4-26.9L702.4-26.9Q707.06-26.9 709.57-24.56 712.09-22.22 712.09-18.07L712.09-18.07 712.09-5.32Q712.09-4.54 712.14-3.77 712.19-3 712.31-2.25L712.31-2.25 715.46-2.12 715.46 0 709.7 0Q709.4-1.44 709.29-2.32 709.18-3.2 709.16-4.3L709.16-4.3Q707.72-2.17 705.35-0.83 702.98 0.51 700.1 0.51ZM700.44-2.05L700.44-2.05Q703.15-2.05 705.58-3.48 708.01-4.91 709.16-7.28L709.16-7.28 709.16-12.84 703.67-12.84Q699.61-12.84 697.32-11.1 695.02-9.35 695.02-6.81L695.02-6.81Q695.02-4.69 696.49-3.37 697.95-2.05 700.44-2.05ZM767.34 0L756.45 0 756.45-2.12 760.43-2.44 760.43-23.95 756.45-24.27 756.45-26.42 763-26.42 763.31-22.39 763.34-21.68Q764.46-24.15 766.39-25.52 768.32-26.9 771.01-26.9L771.01-26.9Q771.66-26.9 772.41-26.79 773.15-26.68 773.5-26.56L773.5-26.56 773.13-23.88 770.42-24.05Q767.61-24.12 765.83-22.44 764.05-20.75 763.36-17.97L763.36-17.97 763.36-2.44 767.34-2.12 767.34 0Z" opacity="1" transform="matrix(1,0,0,1,0,0)" fill="#35185a" class="undefined-text-1" data-fill-palette-color="secondary" id="text-1"></path></svg></g></svg></g></svg></g></svg></g></svg></g></svg></g></svg></g></svg></g><defs><mask id="29e40011-b330-4bea-b220-e88f21ed8c64"><rect width="395.52" height="247.2" fill="white"></rect><g transform="matrix(1,0,0,1,0,91.81948690575197)" id="clone"><svg viewBox="0 0 395.52 63.56102618849603" height="63.56102618849603" width="395.52"><g><svg viewBox="0 0 395.52 63.56102618849603" height="63.56102618849603" width="395.52"><g><svg viewBox="0 0 395.52 63.56102618849603" height="63.56102618849603" width="395.52"><g><svg viewBox="0 0 395.52 63.56102618849603" height="63.56102618849603" width="395.52"><g id="SvgjsG1063"><svg viewBox="0 0 395.52 63.56102618849603" height="63.56102618849603" width="395.52" id="SvgjsSvg1062"><g><svg viewBox="0 0 395.52 37.91704485488126" height="37.91704485488126" width="395.52"><g transform="matrix(1,0,0,1,0,0)"><svg width="395.52" viewBox="-1.5 -39.849998474121094 455.7699890136719 44.599998474121094" height="37.91704485488126" data-palette-color="#35185a"><path d="M21.05-19.15L25.5-23.9 23.7-30.35 16.35-31.65 11.2-30.85 12.05-19.75 21.05-19.15ZM32.5-9.45L35.65-6.15 29.45-0.6 25.55-1.25 22.9-13 18.2-16.45 11.7-15.5 11.85-3.1 15-2.05 15.4-0.15 4.65-0.3 4.55-1.65 7.5-2.8 6.9-29.25 5.1-31.2 1.5-31.6 1.65-34.3 5.75-34.4 7.85-33.55 9.1-34.65 22.7-34.45 29-28.65 28.1-20.3 23.75-17 27.45-13.45 27.8-4.45 28.9-4.05 32.5-9.45ZM60.8-6.45L64.9-2.55 67.35-0.05 61.8 0.1 58.7-3.5 58.2-2.75 49.1 1.75 39.95-2.05 36.65-11.2 42.75-18.55 44.45-19.7 40.95-27.15 45-35.7 54.6-36.05 59.5-28.8 56.85-24.35 49.75-18.65 49.7-18.65 56.75-10.4 58.4-8.75 62.15-12.95 62.3-20.05 67.6-19.85 65.1-12.5 60.8-6.45ZM45.9-23.05L47.1-21.6 55.95-27.8 53.4-32.3 47.6-33.35 45.15-28.55 45.9-23.05ZM54.7-4.65L56.25-6.4 56.1-6.6 46.75-16.3 40.8-11.45 42-5.7 47.4-1.95 54.7-4.65ZM98-1.95L98.34 0 88.64 0 87.5-1.2 91.39-2.3 89.84-9.35 88.64-11.65 76.25-10.1 75.44-7.4 74.69-2.3 77.8-1.2 77.8 0.4 67.75-0.35 67.75-1.95 70.8-2.7 80.09-35.3 85.55-34.5 95.3-2.7 98-1.95ZM77.39-13.15L87.5-15.1 83.25-30.65 82.5-30.25 77.39-14 77.39-13.15ZM126.34-3.1L135.64-3.5 137.24 0.3 125.19 1.1 117.44-3.95 116.64-26.45 122.49-34.9 132.19-36.85 138.39-32.65 132.19-24.45 130.69-25.6 133.74-31.4 131.04-33.8 124.44-32.25 121.74-25.25 121.74-5.85 126.34-3.1ZM157.19-31L147.89-30.7 145.14-20.4 147.64-8.5 153.99-3.05 158.19-2.7 164.79-14.25 162.29-26.15 157.19-31ZM149.89-35.7L159.84-34.8 166.54-27.5 168.34-13.25 160.79 0.35 151.89 0.65 143.79-7.45 141.89-20.05 144.54-32 149.89-35.7ZM200.98-2.9L204.63-1.75 204.88 0.05 194.38-0.15 194.23-1.4 196.73-2.4 179.88-27.55 180.13-2.45 182.68-1.6 182.88 0.25 172.43 0.05 172.33-1.2 176.43-2.8 176.08-32.5 172.83-33.4 172.88-34.85 183.73-34.95 183.93-33.5 181.08-32.65 197.93-6.9 198.43-32.7 194.88-33.6 194.93-35.05 205.73-35.1 205.98-33.75 202.63-32.7 200.98-2.9ZM234.28-10.65L234.83-22.8 228.23-30.2 222.68-31.55 218.98-30.55 218.68-4.65 228.23-3.7 234.28-10.65ZM228.78-34.3L238.78-23.65 237.18-7.6 229.18 0.4 216.48-0.5 208.98-0.35 209.13-1.9 214.53-3.15 214.73-31.85 211.23-33.2 211.43-35 216.38-35.25 228.78-34.3ZM258.08-31L248.78-30.7 246.03-20.4 248.53-8.5 254.88-3.05 259.08-2.7 265.68-14.25 263.18-26.15 258.08-31ZM250.78-35.7L260.73-34.8 267.43-27.5 269.23-13.25 261.68 0.35 252.78 0.65 244.68-7.45 242.78-20.05 245.43-32 250.78-35.7ZM307.38-2.35L310.93-1.25 310.68 0.2 300.08 0.15 300.03-1.35 304.18-2.45 304.78-30.3 304.18-30.4 293.58-0.85 290.73-0.85 280.83-29.65 279.63-29.55 281.13-2.6 284.28-1.6 284.58 0.25 274.23 0.05 274.13-1.25 277.08-2.35 276.68-32.95 273.38-34.1 273.23-35.25 281.48-34.85 282.88-32.6 291.98-5.4 292.43-5.55 301.48-33.4 302.73-35.1 310.68-35.1 310.68-33.5 308.38-32.95 307.38-2.35ZM321.53-2.1L324.48-1 324.57 0.5 315.03-0.25 314.98-1.7 318.43-2.8 317.57-32.75 313.93-34 314.03-35.35 324.73-35.45 325.03-33.65 321.68-32.65 321.53-2.1ZM356.67-2.9L360.32-1.75 360.57 0.05 350.07-0.15 349.92-1.4 352.42-2.4 335.57-27.55 335.82-2.45 338.37-1.6 338.57 0.25 328.12 0.05 328.02-1.2 332.12-2.8 331.77-32.5 328.52-33.4 328.57-34.85 339.42-34.95 339.62-33.5 336.77-32.65 353.62-6.9 354.12-32.7 350.57-33.6 350.62-35.05 361.42-35.1 361.67-33.75 358.32-32.7 356.67-2.9ZM372.27-2.1L375.22-1 375.32 0.5 365.77-0.25 365.72-1.7 369.17-2.8 368.32-32.75 364.67-34 364.77-35.35 375.47-35.45 375.77-33.65 372.42-32.65 372.27-2.1ZM410.57-35.45L410.37-33.65 407.62-32.7 406.67-5.95 401.62 0 388.82 0.5 382.97-5.8 381.82-30.7 381.57-32.8 378.77-33.55 378.82-35 389.37-35.1 389.52-33.65 386.22-32.65 386.37-8.6 389.52-3.55 399.87-3.9 402.92-8.25 402.52-33 400.17-33.75 400.22-35.1 410.57-35.45ZM447.72-2.35L451.27-1.25 451.02 0.2 440.42 0.15 440.37-1.35 444.52-2.45 445.12-30.3 444.52-30.4 433.92-0.85 431.07-0.85 421.17-29.65 419.97-29.55 421.47-2.6 424.62-1.6 424.92 0.25 414.57 0.05 414.47-1.25 417.42-2.35 417.02-32.95 413.72-34.1 413.57-35.25 421.82-34.85 423.22-32.6 432.32-5.4 432.77-5.55 441.82-33.4 443.07-35.1 451.02-35.1 451.02-33.5 448.72-32.95 447.72-2.35Z" opacity="1" transform="matrix(1,0,0,1,0,0)" fill="#35185a" class="undefined-text-0" data-fill-palette-color="primary" id="SvgjsPath1061" stroke-width="5" stroke="black" stroke-linejoin="round"></path></svg></g></svg></g><g transform="matrix(1,0,0,1,2.5,42.81553257372031)"><svg viewBox="0 0 390.52 20.745493614775718" height="20.745493614775718" width="390.52"><g transform="matrix(1,0,0,1,0,0)"><svg width="390.52" viewBox="-1.1399999856948853 -38.54999923706055 777.6400146484375 42.05999755859375" height="20.745493614775718" data-palette-color="#35185a"><path d="M28.13 0L1.86 0 1.86-2.12 5.83-2.44 5.83-33.08 1.86-33.4 1.86-35.55 27.39-35.55 27.39-27.76 24.9-27.76 24.66-33.13 8.76-33.13 8.76-19.68 23.1-19.68 23.1-17.24 8.76-17.24 8.76-2.37 25.42-2.37 25.66-7.79 28.13-7.79 28.13 0ZM79.33 0L70.2 0 70.2-2.12 73.2-2.39 81.57-13.45 73.54-24.02 70.68-24.27 70.68-26.42 79.62-26.42 79.62-24.27 76.79-24.15 83.33-15.43 89.78-24.15 86.85-24.27 86.85-26.42 95.71-26.42 95.71-24.27 92.83-24.02 85.04-13.5 93.58-2.39 96.49-2.12 96.49 0 87.16 0 87.16-2.12 90.26-2.25 83.28-11.47 76.37-2.25 79.33-2.12 79.33 0ZM145.32 0.51L145.32 0.51Q141.56 0.51 139.44-1.49 137.31-3.49 137.31-6.91L137.31-6.91Q137.31-9.35 138.73-11.19 140.15-13.04 142.75-14.06 145.35-15.09 148.91-15.09L148.91-15.09 154.38-15.09 154.38-18.12Q154.38-20.97 152.68-22.72 150.99-24.46 147.57-24.46L147.57-24.46Q145.64-24.46 144.11-23.84 142.59-23.22 141.46-22.27L141.46-22.27 141.22-18.24 138.8-18.24 138.8-23.75Q140.51-25.22 142.69-26.06 144.86-26.9 147.62-26.9L147.62-26.9Q152.28-26.9 154.79-24.56 157.31-22.22 157.31-18.07L157.31-18.07 157.31-5.32Q157.31-4.54 157.36-3.77 157.41-3 157.53-2.25L157.53-2.25 160.68-2.12 160.68 0 154.92 0Q154.62-1.44 154.51-2.32 154.4-3.2 154.38-4.3L154.38-4.3Q152.94-2.17 150.57-0.83 148.2 0.51 145.32 0.51ZM145.66-2.05L145.66-2.05Q148.37-2.05 150.8-3.48 153.23-4.91 154.38-7.28L154.38-7.28 154.38-12.84 148.89-12.84Q144.83-12.84 142.54-11.1 140.24-9.35 140.24-6.81L140.24-6.81Q140.24-4.69 141.71-3.37 143.17-2.05 145.66-2.05ZM213.15 0.51L213.15 0.51Q209.85 0.51 207.33-1.15 204.8-2.81 203.37-5.79 201.94-8.76 201.94-12.7L201.94-12.7 201.94-13.72Q201.94-17.58 203.32-20.56 204.7-23.54 207.22-25.22 209.73-26.9 213.12-26.9L213.12-26.9Q216.2-26.9 218.59-25.74 220.99-24.58 222.6-22.75L222.6-22.75 222.65-16.77 220.2-16.77 219.81-21.7Q218.59-23 216.96-23.72 215.32-24.44 213.2-24.44L213.2-24.44Q210.71-24.44 208.83-23.05 206.95-21.66 205.91-19.23 204.87-16.8 204.87-13.72L204.87-13.72 204.87-12.7Q204.87-9.47 205.9-7.04 206.92-4.61 208.78-3.27 210.63-1.93 213.17-1.93L213.17-1.93Q216.13-1.93 218.11-3.48 220.08-5.03 220.5-8.06L220.5-8.06 223.11-8.06 223.16-7.91Q222.94-5.42 221.68-3.52 220.42-1.61 218.26-0.55 216.1 0.51 213.15 0.51ZM274.7 0.46L274.7 0.46Q271.92 0.46 270.38-1.26 268.84-2.98 268.84-6.81L268.84-6.81 268.84-24.05 264.28-24.05 264.28-26.42 268.84-26.42 268.84-33.2 271.77-33.2 271.77-26.42 277.92-26.42 277.92-24.05 271.77-24.05 271.77-6.81Q271.77-4.17 272.71-3.02 273.65-1.86 275.21-1.86L275.21-1.86Q276.04-1.86 276.85-1.97 277.66-2.08 278.51-2.2L278.51-2.2 278.95-0.1Q278.07 0.17 276.95 0.32 275.83 0.46 274.7 0.46ZM380.33 0L369.44 0 369.44-2.12 373.42-2.44 373.42-23.95 369.44-24.27 369.44-26.42 376.01-26.42 376.25-21.68Q377.52-24.17 379.67-25.54 381.82-26.9 384.79-26.9L384.79-26.9Q389.09-26.9 391.34-24.28 393.58-21.66 393.58-16.06L393.58-16.06 393.58-2.44 397.56-2.12 397.56 0 386.67 0 386.67-2.12 390.65-2.44 390.65-16.04Q390.65-20.63 388.97-22.51 387.28-24.39 384.16-24.39L384.16-24.39Q380.89-24.39 378.98-22.56 377.08-20.73 376.35-17.77L376.35-17.77 376.35-2.44 380.33-2.12 380.33 0ZM450.64 0.51L450.64 0.51Q447.25 0.51 444.66-1.14 442.07-2.78 440.61-5.7 439.15-8.62 439.15-12.43L439.15-12.43 439.15-13.77Q439.15-17.55 440.61-20.52 442.07-23.49 444.58-25.2 447.08-26.9 450.16-26.9L450.16-26.9Q453.4-26.9 455.71-25.51 458.02-24.12 459.25-21.59 460.48-19.07 460.48-15.65L460.48-15.65 460.48-13.16 442.17-13.16 442.12-12.08Q442.15-9.16 443.21-6.86 444.27-4.57 446.19-3.25 448.11-1.93 450.64-1.93L450.64-1.93Q453.13-1.93 455.03-2.72 456.92-3.52 458.36-4.88L458.36-4.88 459.6-2.88Q458.07-1.42 455.88-0.45 453.7 0.51 450.64 0.51ZM442.32-15.75L442.37-15.6 457.55-15.6 457.55-16.33Q457.55-18.65 456.66-20.5 455.77-22.34 454.12-23.39 452.48-24.44 450.16-24.44L450.16-24.44Q448.06-24.44 446.37-23.3 444.69-22.17 443.63-20.2 442.56-18.24 442.32-15.75L442.32-15.75ZM514.13 0.51L514.13 0.51Q510.83 0.51 508.3-1.15 505.78-2.81 504.35-5.79 502.92-8.76 502.92-12.7L502.92-12.7 502.92-13.72Q502.92-17.58 504.3-20.56 505.68-23.54 508.19-25.22 510.71-26.9 514.1-26.9L514.1-26.9Q517.18-26.9 519.57-25.74 521.96-24.58 523.57-22.75L523.57-22.75 523.62-16.77 521.18-16.77 520.79-21.7Q519.57-23 517.93-23.72 516.3-24.44 514.17-24.44L514.17-24.44Q511.68-24.44 509.8-23.05 507.92-21.66 506.89-19.23 505.85-16.8 505.85-13.72L505.85-13.72 505.85-12.7Q505.85-9.47 506.87-7.04 507.9-4.61 509.76-3.27 511.61-1.93 514.15-1.93L514.15-1.93Q517.1-1.93 519.08-3.48 521.06-5.03 521.47-8.06L521.47-8.06 524.09-8.06 524.14-7.91Q523.92-5.42 522.66-3.52 521.4-1.61 519.24-0.55 517.08 0.51 514.13 0.51ZM578.22 0.51L578.22 0.51Q574.82 0.51 572.24-1.14 569.65-2.78 568.18-5.7 566.72-8.62 566.72-12.43L566.72-12.43 566.72-13.77Q566.72-17.55 568.18-20.52 569.65-23.49 572.15-25.2 574.65-26.9 577.73-26.9L577.73-26.9Q580.98-26.9 583.28-25.51 585.59-24.12 586.82-21.59 588.06-19.07 588.06-15.65L588.06-15.65 588.06-13.16 569.75-13.16 569.7-12.08Q569.72-9.16 570.78-6.86 571.85-4.57 573.76-3.25 575.68-1.93 578.22-1.93L578.22-1.93Q580.71-1.93 582.6-2.72 584.49-3.52 585.93-4.88L585.93-4.88 587.18-2.88Q585.64-1.42 583.45-0.45 581.27 0.51 578.22 0.51ZM569.89-15.75L569.94-15.6 585.13-15.6 585.13-16.33Q585.13-18.65 584.24-20.5 583.34-22.34 581.7-23.39 580.05-24.44 577.73-24.44L577.73-24.44Q575.63-24.44 573.94-23.3 572.26-22.17 571.2-20.2 570.14-18.24 569.89-15.75L569.89-15.75ZM640.04 0.51L640.04 0.51Q637.26 0.51 634.88-0.23 632.49-0.98 630.4-2.39L630.4-2.39 630.37-7.81 632.76-7.81 633.18-3.93Q634.59-2.83 636.33-2.34 638.06-1.86 640.04-1.86L640.04-1.86Q643.36-1.86 645.09-3.3 646.83-4.74 646.83-6.71L646.83-6.71Q646.83-8.57 645.28-10 643.73-11.43 639.77-12.3L639.77-12.3Q635.03-13.33 632.92-15.04 630.81-16.75 630.81-19.8L630.81-19.8Q630.81-21.8 631.93-23.41 633.06-25.02 635.12-25.96 637.18-26.9 639.97-26.9L639.97-26.9Q642.87-26.9 645.02-26.06 647.17-25.22 648.71-23.8L648.71-23.8 648.83-18.38 646.44-18.38 646.09-22.29Q644.99-23.34 643.53-23.91 642.06-24.49 639.97-24.49L639.97-24.49Q636.99-24.49 635.38-23.11 633.76-21.73 633.76-19.9L633.76-19.9Q633.76-18.7 634.26-17.81 634.77-16.92 636.19-16.21 637.62-15.5 640.36-14.87L640.36-14.87Q645.31-13.75 647.53-11.83 649.76-9.91 649.76-6.86L649.76-6.86Q649.76-3.64 647.25-1.56 644.75 0.51 640.04 0.51ZM700.1 0.51L700.1 0.51Q696.34 0.51 694.22-1.49 692.09-3.49 692.09-6.91L692.09-6.91Q692.09-9.35 693.51-11.19 694.93-13.04 697.53-14.06 700.13-15.09 703.69-15.09L703.69-15.09 709.16-15.09 709.16-18.12Q709.16-20.97 707.46-22.72 705.77-24.46 702.35-24.46L702.35-24.46Q700.42-24.46 698.89-23.84 697.37-23.22 696.24-22.27L696.24-22.27 696-18.24 693.58-18.24 693.58-23.75Q695.29-25.22 697.47-26.06 699.64-26.9 702.4-26.9L702.4-26.9Q707.06-26.9 709.57-24.56 712.09-22.22 712.09-18.07L712.09-18.07 712.09-5.32Q712.09-4.54 712.14-3.77 712.19-3 712.31-2.25L712.31-2.25 715.46-2.12 715.46 0 709.7 0Q709.4-1.44 709.29-2.32 709.18-3.2 709.16-4.3L709.16-4.3Q707.72-2.17 705.35-0.83 702.98 0.51 700.1 0.51ZM700.44-2.05L700.44-2.05Q703.15-2.05 705.58-3.48 708.01-4.91 709.16-7.28L709.16-7.28 709.16-12.84 703.67-12.84Q699.61-12.84 697.32-11.1 695.02-9.35 695.02-6.81L695.02-6.81Q695.02-4.69 696.49-3.37 697.95-2.05 700.44-2.05ZM767.34 0L756.45 0 756.45-2.12 760.43-2.44 760.43-23.95 756.45-24.27 756.45-26.42 763-26.42 763.31-22.39 763.34-21.68Q764.46-24.15 766.39-25.52 768.32-26.9 771.01-26.9L771.01-26.9Q771.66-26.9 772.41-26.79 773.15-26.68 773.5-26.56L773.5-26.56 773.13-23.88 770.42-24.05Q767.61-24.12 765.83-22.44 764.05-20.75 763.36-17.97L763.36-17.97 763.36-2.44 767.34-2.12 767.34 0Z" opacity="1" transform="matrix(1,0,0,1,0,0)" fill="#35185a" class="undefined-text-1" data-fill-palette-color="secondary" id="SvgjsPath1060" stroke-width="5" stroke="black" stroke-linejoin="round"></path></svg></g></svg></g></svg></g></svg></g></svg></g></svg></g></svg></g></mask></defs></svg><rect width="395.52" height="247.2" fill="none" stroke="none" visibility="hidden"></rect></g></svg></g></svg>